<svg id="eMWFscmy2KD1" xmlns="http://www.w3.org/2000/svg" xmlns:xlink="http://www.w3.org/1999/xlink" viewBox="0 0 291.86 57.65" shape-rendering="geometricPrecision" text-rendering="geometricPrecision" style="background-color:transparent"><style><![CDATA[#eMWFscmy2KD4_ts {animation: eMWFscmy2KD4_ts__ts 3000ms linear infinite normal forwards}@keyframes eMWFscmy2KD4_ts__ts { 0% {transform: translate(263.694992px,34.855002px) scale(1,1)} 16.666667% {transform: translate(263.694992px,34.855002px) scale(-1,1)} 40% {transform: translate(263.694992px,34.855002px) scale(1,1)} 100% {transform: translate(263.694992px,34.855002px) scale(1,1)}}]]></style><g id="eMWFscmy2KD2"><g id="eMWFscmy2KD3"><g id="eMWFscmy2KD4_ts" transform="translate(263.694992,34.855002) scale(1,1)"><g id="eMWFscmy2KD4" transform="translate(-263.694992,-34.855001)"><polygon id="eMWFscmy2KD5" points="291.86,12.08 288.41,15.92 288.4,15.93 284.97,19.77 271.51,34.86 268.92,37.74 266.32,40.65 263.74,43.54 254.52,53.77 251.09,57.63 235.53,57.63 238.98,53.77 255.96,34.85 258.55,31.97 261.15,29.05 263.73,26.17 269.4,19.77 274.59,19.77 266.32,29.06 263.74,31.96 261.14,34.85 258.55,37.74 244.15,53.77 249.35,53.77 261.15,40.65 263.73,37.76 266.33,34.85 268.91,31.97 279.78,19.77 283.22,15.93 267.72,15.93 271.16,12.08 291.86,12.08" fill="rgb(59,58,60)" stroke="none" stroke-width="1"/><polygon id="eMWFscmy2KD6" points="263.73,26.17 261.15,29.05 261.14,29.05 263.73,26.17" fill="rgb(192,32,47)" stroke="none" stroke-width="1"/><polygon id="eMWFscmy2KD7" points="291.86,57.63 276.32,57.63 272.87,53.77 266.32,46.44 266.98,45.7 268.91,43.54 278.03,53.77 283.25,53.77 271.51,40.64 274.09,37.74 288.4,53.77 291.86,57.63" fill="rgb(192,32,47)" stroke="none" stroke-width="1"/><polygon id="eMWFscmy2KD8" points="249.37,15.93 244.16,15.93 255.95,29.06 253.37,31.96 239,15.93 235.54,12.08 251.09,12.08 254.53,15.93 261.14,23.28 258.55,26.17 249.37,15.93" fill="rgb(192,32,47)" stroke="none" stroke-width="1"/><polygon id="eMWFscmy2KD9" points="258.55,31.97 255.96,34.85 255.95,34.85 256.63,34.09 258.54,31.96 258.55,31.97" fill="rgb(192,32,47)" stroke="none" stroke-width="1"/></g></g><path id="eMWFscmy2KD10" d="M104.34,12.06L88.34,53.13C87.281102,55.839302,84.66888,57.621807,81.76,57.62L81.76,57.62C78.85112,57.621807,76.238898,55.839302,75.18,53.13L59.18,12.06L67.98,12.06L81.49,46.66C81.536554,46.785421,81.656217,46.868645,81.79,46.868645C81.923783,46.868645,82.043446,46.785421,82.09,46.66L95.6,12.06Z" fill="rgb(49,139,173)" stroke="none" stroke-width="1"/><path id="eMWFscmy2KD11" d="M37,12.05C25.191854,12.06651,15.622029,21.631863,15.6,33.44L15.6,57.62L23.8,57.62L23.8,33.44C23.8,26.149841,29.709841,20.24,37,20.24C44.290159,20.24,50.2,26.149841,50.2,33.44L50.2,57.62L58.4,57.62L58.4,33.44C58.383464,21.629582,48.810425,12.061016,37,12.05Z" fill="rgb(49,139,173)" stroke="none" stroke-width="1"/><path id="eMWFscmy2KD12" d="M144.66,12.05C132.849575,12.061016,123.276536,21.629582,123.26,33.44L123.26,57.62L131.46,57.62L131.46,33.44C131.656742,26.294037,137.506329,20.603284,144.655,20.603284C151.803671,20.603284,157.653258,26.294037,157.85,33.44L157.85,57.62L166.05,57.62L166.05,33.44C166.038974,21.631199,156.468801,12.061026,144.66,12.05Z" fill="rgb(49,139,173)" stroke="none" stroke-width="1"/><path id="eMWFscmy2KD13" d="M194.06,49.45C187.111565,49.462339,181.119909,44.569545,179.743167,37.758856C178.366425,30.948168,181.987194,24.112276,188.394855,21.424756C194.802517,18.737235,202.216381,20.944947,206.11,26.7L215.31,26.7C211.370458,16.453532,200.683442,10.474148,189.890092,12.477565C179.096741,14.480981,171.267409,23.897291,171.267409,34.875C171.267409,45.852709,179.096741,55.269019,189.890092,57.272435C200.683442,59.275852,211.370458,53.296468,215.31,43.05L206.11,43.05C203.403349,47.049783,198.889515,49.447172,194.06,49.45Z" fill="rgb(49,139,173)" stroke="none" stroke-width="1"/><rect id="eMWFscmy2KD14" width="8.2" height="45.56" rx="0" ry="0" transform="matrix(1 0 0 1 0 12.07)" fill="rgb(49,139,173)" stroke="none" stroke-width="1"/><circle id="eMWFscmy2KD15" r="4.09" transform="matrix(1 0 0 1 4.1 4.09)" fill="rgb(49,139,173)" stroke="none" stroke-width="1"/><rect id="eMWFscmy2KD16" width="8.2" height="45.56" rx="0" ry="0" transform="matrix(1 0 0 1 108.73 12.07)" fill="rgb(49,139,173)" stroke="none" stroke-width="1"/><circle id="eMWFscmy2KD17" r="4.09" transform="matrix(1 0 0 1 112.83 4.09)" fill="rgb(49,139,173)" stroke="none" stroke-width="1"/><rect id="eMWFscmy2KD18" width="8.2" height="45.56" rx="0" ry="0" transform="matrix(1 0 0 1 221.24 12.07)" fill="rgb(49,139,173)" stroke="none" stroke-width="1"/><circle id="eMWFscmy2KD19" r="4.09" transform="matrix(1 0 0 1 225.34 4.09)" fill="rgb(49,139,173)" stroke="none" stroke-width="1"/></g></g></svg>